<svg xmlns="http://www.w3.org/2000/svg"  version="1.1" x="0px" y="0px" viewBox="0 0 48 55" enable-background="new 0 0 48 55" xml:space="preserve"><g><path fill="#ffffff" d="M43,22v-0.15V21v-0.57c0-2.83-0.61-5.61-1.83-8.24c-0.13-0.29-3.36-7.07-9.33-9.46   c-2.26-1.05-4.66-1.63-7.15-1.72C13.9,0.6,5,9.29,5,20v1v0.85V22H4V5h7V0H2v3v2v17H0v14.92c0,2.25,1.2,4.36,3.12,5.52l2.32,1.39   l14.84,10.88l0.31,0.21h0.33l0.08,0V55h6v-0.09c0.03,0,0.05,0.02,0.08,0.02l0.37-0.01l15.11-11.08l2.31-1.39   C46.8,41.29,48,39.17,48,36.92V22H43z M4,2h5v1H4V2z M28,52.03l0-20.06c-0.03-0.8,0.6-1.56,1.45-1.72l9.35-3.84   c-3.97,2.47-10.52,9.05-10.78,25.61L28,52.03z M41,27.46v15.04l-10.94,8.03C30.73,34.06,38.01,28.89,41,27.46z M7,20   c0-9.58,7.96-17.32,17.62-16.99c2.22,0.08,4.36,0.59,6.43,1.55c5.28,2.12,8.29,8.41,8.31,8.47c1.05,2.28,1.6,4.67,1.64,7.11   c-11.22,1.78-22.78,1.78-34,0V20z M2,36.92V24h3v17.23l-0.85-0.51C2.83,39.93,2,38.47,2,36.92z M7,27.46   c2.99,1.43,10.27,6.6,10.94,23.06L7,42.49V27.46z M20,52.03l-0.02-0.01c-0.25-16.54-6.79-23.13-10.76-25.6l9.15,3.77l0.18,0.06   C19.4,30.41,20.03,31.17,20,32V52.03z M26.12,31.02C26.08,31.02,26.04,31,26,31c-0.55,0-1,0.45-1,1s0.45,1,1,1c0,0,0,0,0,0v2   c0,0,0,0,0,0c-0.55,0-1,0.45-1,1s0.45,1,1,1c0,0,0,0,0,0v2c0,0,0,0,0,0c-0.55,0-1,0.45-1,1s0.45,1,1,1c0,0,0,0,0,0v2c0,0,0,0,0,0   c-0.55,0-1,0.45-1,1s0.45,1,1,1c0,0,0,0,0,0v2c0,0,0,0,0,0c-0.55,0-1,0.45-1,1s0.45,1,1,1c0,0,0,0,0,0v2c0,0,0,0,0,0   c-0.55,0-1,0.45-1,1s0.45,1,1,1c0,0,0,0,0,0v0h0h-4l0,0l0,0l0,0c0.55,0,1-0.45,1-1s-0.45-1-1-1h0l0-2c0,0,0,0,0,0   c0.55,0,1-0.45,1-1s-0.45-1-1-1c0,0,0,0,0,0v-2c0,0,0,0,0,0c0.55,0,1-0.45,1-1s-0.45-1-1-1c0,0,0,0,0,0l0-2c0,0,0,0,0,0   c0.55,0,1-0.45,1-1s-0.45-1-1-1c0,0,0,0,0,0l0-2c0,0,0,0,0,0c0.55,0,1-0.45,1-1s-0.45-1-1-1c0,0,0,0,0,0l0-2c0,0,0,0,0,0   c0.55,0,1-0.45,1-1s-0.45-1-1-1c-0.04,0-0.08,0.02-0.13,0.03c-0.34-1.32-1.42-2.4-2.82-2.73l-0.1-0.04C18.97,28.17,19,28.09,19,28   c0-0.55-0.45-1-1-1c-0.37,0-0.68,0.21-0.86,0.51l-1.34-0.55C15.87,26.97,15.93,27,16,27c0.55,0,1-0.45,1-1s-0.45-1-1-1s-1,0.45-1,1   c0,0.35,0.19,0.64,0.46,0.82l-2.5-1.03C12.86,25.34,12.48,25,12,25c-0.2,0-0.37,0.07-0.53,0.17l-0.9-0.37   C10.82,24.62,11,24.34,11,24c0-0.55-0.45-1-1-1s-1,0.45-1,1c0,0.06,0.02,0.11,0.03,0.17L7,23.33v-1.17c0.01,0,0.02,0,0.03,0   C7.11,22.63,7.5,23,8,23c0.4,0,0.73-0.24,0.89-0.57c0.82,0.11,1.64,0.22,2.46,0.32C11.53,22.9,11.75,23,12,23   c0.18,0,0.33-0.06,0.48-0.14c0.49,0.05,0.97,0.11,1.46,0.15C13.41,23.05,13,23.47,13,24c0,0.55,0.45,1,1,1s1-0.45,1-1   c0-0.48-0.34-0.86-0.79-0.96c1.04,0.09,2.08,0.16,3.12,0.22C17.13,23.45,17,23.71,17,24c0,0.55,0.45,1,1,1s1-0.45,1-1   c0-0.25-0.1-0.47-0.25-0.65c0.82,0.04,1.63,0.06,2.45,0.08C21.08,23.6,21,23.78,21,24c0,0.55,0.45,1,1,1s1-0.45,1-1   c0-0.2-0.07-0.38-0.18-0.53c0.39,0,0.78,0.02,1.18,0.02s0.78-0.02,1.18-0.02C25.07,23.62,25,23.8,25,24c0,0.55,0.45,1,1,1   s1-0.45,1-1c0-0.22-0.08-0.4-0.2-0.57c0.82-0.02,1.63-0.04,2.45-0.08C29.1,23.53,29,23.75,29,24c0,0.55,0.45,1,1,1s1-0.45,1-1   c0-0.29-0.13-0.55-0.33-0.74c1.04-0.06,2.08-0.13,3.12-0.22C33.34,23.14,33,23.52,33,24c0,0.55,0.45,1,1,1s1-0.45,1-1   c0-0.53-0.41-0.95-0.93-0.99c0.49-0.04,0.97-0.1,1.46-0.15C35.67,22.94,35.82,23,36,23c0.25,0,0.47-0.1,0.65-0.25   c0.82-0.09,1.64-0.2,2.46-0.32C39.27,22.76,39.6,23,40,23c0.5,0,0.89-0.37,0.97-0.84c0.01,0,0.02,0,0.03,0v1.18l-2.03,0.84   C38.98,24.11,39,24.06,39,24c0-0.55-0.45-1-1-1s-1,0.45-1,1c0,0.34,0.18,0.62,0.43,0.8l-0.9,0.37C36.38,25.07,36.2,25,36,25   c-0.48,0-0.86,0.34-0.96,0.79l-2.5,1.03C32.81,26.64,33,26.35,33,26c0-0.55-0.45-1-1-1s-1,0.45-1,1s0.45,1,1,1   c0.07,0,0.14-0.03,0.2-0.04l-1.35,0.56C30.68,27.21,30.37,27,30,27c-0.55,0-1,0.45-1,1c0,0.09,0.03,0.17,0.05,0.26l-0.1,0.04   C27.54,28.62,26.46,29.72,26.12,31.02z M46,36.92c0,1.55-0.83,3.01-2.15,3.8L43,41.23V24h3V36.92z"/><circle fill="#ffffff" cx="31" cy="13" r="1"/><circle fill="#ffffff" cx="33" cy="11" r="1"/><circle fill="#ffffff" cx="35" cy="13" r="1"/><circle fill="#ffffff" cx="33" cy="15" r="1"/><circle fill="#ffffff" cx="20" cy="26" r="1"/><circle fill="#ffffff" cx="26" cy="28" r="1"/><circle fill="#ffffff" cx="28" cy="26" r="1"/><circle fill="#ffffff" cx="24" cy="30" r="1"/><circle fill="#ffffff" cx="24" cy="34" r="1"/><circle fill="#ffffff" cx="24" cy="38" r="1"/><circle fill="#ffffff" cx="24" cy="42" r="1"/><circle fill="#ffffff" cx="24" cy="46" r="1"/><circle fill="#ffffff" cx="24" cy="50" r="1"/><circle fill="#ffffff" cx="24" cy="26" r="1"/><circle fill="#ffffff" cx="22" cy="28" r="1"/><circle fill="#ffffff" cx="29" cy="15" r="1"/><circle fill="#ffffff" cx="29" cy="11" r="1"/></g></svg>