<svg xmlns="http://www.w3.org/2000/svg"  version="1.1" x="0px" y="0px" viewBox="0 0 100 100" enable-background="new 0 0 100 100" xml:space="preserve"><g><path stroke="white" fill="white" d="M89.5,59.8l-18.6,0L83.1,46c3-2.7,4.4-7,3-11.1c-1.4-4.3-5.3-6.9-9.6-7l0-0.1l-36.8,1.9c-3.8-0.3-8.1,4.4-8.7,8.5l-1.8,8.2   l-5,16l-13.9,0c-2.6,0-4.8,2.2-4.8,4.8c0,2.6,2.2,4.8,4.8,4.8l16.7,0c0.1,0,0.2-0.1,0.3-0.1c2.2,0.1,4.2-1.1,4.9-3.3l5-15.8   l2.2-0.1l-4.1,13c-0.8,2.5,0.6,5.2,3.1,6c2.5,0.8,5.2-0.6,6-3.1l5.3-16.8l10.9-1.3l-8.7,12.1c-1.8,2.3-1.1,5.8,1.5,7.9   c0.9,0.7,1.9,1.1,2.9,1.3c0.4,0.1,0.7,0.1,1.1,0.2c0.1,0,0.3,0,0.4,0l31.4,0c3.2,0,5.9-2.6,5.9-5.9l0-0.4   C95.4,62.5,92.7,59.8,89.5,59.8z"/><circle cx="16.7" cy="40.6" r="11.2" fill="white"/></g></svg>