<svg xmlns="http://www.w3.org/2000/svg"  version="1.1" x="0px" y="0px" viewBox="0 0 20 20" enable-background="new 0 0 20 20" xml:space="preserve"><path fill="#000000" d="M10,0L10,0C4.5,0,0,4.5,0,10v9.3c0,0.3,0.3,0.5,0.6,0.3l4.2-2.5c0.1-0.1,0.3-0.1,0.4,0l4.6,2.8  c0.1,0.1,0.3,0.1,0.4,0l4.6-2.8c0.1-0.1,0.3-0.1,0.4,0l4.2,2.5c0.3,0.2,0.6,0,0.6-0.3V10C20,4.5,15.5,0,10,0z M6,10  c-1.1,0-2-0.9-2-2c0-1.1,0.9-2,2-2c1.1,0,2,0.9,2,2C8,9.1,7.1,10,6,10z M14,10c-1.1,0-2-0.9-2-2c0-1.1,0.9-2,2-2s2,0.9,2,2  C16,9.1,15.1,10,14,10z"/><text x="0" y="35" fill="#000000" font-size="5px" font-weight="bold" font-family="'Helvetica Neue', Helvetica, Arial-Unicode, Arial, Sans-serif">Created by ProSymbols</text><text x="0" y="40" fill="#000000" font-size="5px" font-weight="bold" font-family="'Helvetica Neue', Helvetica, Arial-Unicode, Arial, Sans-serif">from the Noun Project</text></svg>