<svg xmlns="http://www.w3.org/2000/svg" version="1.1" x="0px" y="0px" viewBox="0 0 100 100">
    <g transform="translate(0,-952.36218)">
        <path d="m 49.116045,958.36224 c -14.25037,0.5109 -26.12967,5.1953 -33.369291,15.1078 -7.2396295,9.9122 -9.6754895,24.6875 -6.1551995,44.88536 0.11312,0.6558 0.5756095,1.2406 1.1872995,1.5014 l 63.520391,26.2431 c 1.60354,0.4239 3.3511,0.2989 4.6867,-0.1248 1.47381,-0.4795 2.91831,-1.2859 4.09305,-2.3772 2.44279,-3.1035 4.86432,-6.3208 7.28,-9.4775 0.21797,-0.2795 0.35977,-0.618 0.40618,-0.9696 1.99767,-17.5509 2.07207,-35.94676 -3.59313,-50.29666 -7.6237,-17.4982 -17.62199,-24.5048 -38.056,-24.4919 z m 0.56242,10.0093 c 8.50133,-0.2333 17.38441,2.3184 27.18285,4.7856 3.84356,4.8633 6.19709,9.4879 7.84241,14.795 -8.46298,-0.4248 -16.36448,-3.1324 -25.24569,-6.7876 -5.34721,-2.2375 -11.24091,-2.1509 -16.27846,-0.5 -5.29018,1.8271 -10.09628,6.0596 -10.18576,11.3855 0,8.74236 4.37136,15.61986 10.90438,18.98646 11.20695,3.6426 22.71122,7.2949 32.33823,10.3846 0.97163,2.8595 1.90117,4.9863 3.84309,6.6312 1.62667,1.3779 3.72437,2.3168 6.81133,3.4094 -0.78899,2.4613 -3.15498,4.6959 -4.78043,6.8189 l -43.14887,-20.394 c -0.16311,-1.8272 -1.1336,-3.4474 -2.3746,-5.0673 -1.36128,-1.7766 -3.15276,-3.5714 -5.15537,-5.3173 -4.0052,-3.4923 -8.80241,-6.7738 -12.435371,-8.85196 -1.52283,-0.7361 -3.16753,0.8473 -2.96824,2.12696 0.59093,2.6086 1.67044,4.8267 2.12464,7.2879 l -5.99898,-2.8463 c -0.63436,-13.01646 1.93312,-22.68036 6.84258,-29.40226 0.95426,-1.3065 1.992571,-2.5204 3.124471,-3.6284 -0.32262,1.804 -0.97675,3.9616 -1.968421,6.4435 -0.3068,2.3417 1.611291,3.0949 3.249451,2.1582 8.14584,-6.9356 17.10866,-12.0514 26.27676,-12.4181 z m 12.81031,18.2669 c 7.75858,2.9831 15.21105,5.1547 23.33976,5.3488 2.03792,8.72376 2.43118,18.72526 1.90592,28.93306 -7.0225,-2.2522 -14.04137,-4.5036 -21.0589,-6.7563 z m -49.991461,23.14646 66.863571,31.5919 c -1.15275,0.7666 -2.312,1.0281 -3.68687,0.9696 l -62.270601,-25.7113 c -0.39061,-2.3708 -0.68669,-4.6548 -0.9061,-6.8502 z"
              style="text-indent:0;text-transform:none;direction:ltr;block-progression:tb;baseline-shift:baseline;color:#000000;enable-background:accumulate;"
              fill="#ffffff" fill-opacity="1" stroke="none" marker="none" visibility="visible" display="inline"
              overflow="visible"/>
    </g>
</svg>