<svg xmlns="http://www.w3.org/2000/svg"  version="1.1" x="0px" y="0px" viewBox="0 0 90 90" enable-background="new 0 0 90 90" xml:space="preserve"><path fill="#ffffff" d="M67.749,69.849c0-0.691-0.211-1.217-3.142-2.69c-1.079-0.543-1.968-0.924-2.668-1.146c-0.319-0.563-0.83-1.001-1.443-1.229  v-3.961c1.489-0.898,2.79-2.261,3.854-4.07c0.035-0.059,0.064-0.12,0.09-0.184c0.041-0.053,0.078-0.109,0.111-0.168  c0.362-0.654,0.684-1.344,0.952-2.048c0.017-0.043,0.03-0.085,0.041-0.129c0.19-0.709,0.317-1.518,0.38-2.406  c0.002-0.03,0.003-0.059,0.003-0.09V23.109c0-2.84-2.311-5.15-5.15-5.15c-2.839,0-5.149,2.311-5.149,5.15v8.828  c-0.759-0.44-1.637-0.697-2.575-0.697c-1.539,0-2.918,0.683-3.862,1.755c-0.945-1.072-2.324-1.755-3.863-1.755  c-0.938,0-1.816,0.257-2.575,0.697V19.982c0-2.839-2.31-5.15-5.149-5.15s-5.15,2.311-5.15,5.15v19.451l-1.251-1.378  c-1.907-2.102-5.172-2.259-7.274-0.351c-2.062,1.872-2.237,4.82-0.432,7.179c0.117,0.163,0.41,0.612,0.779,1.177  c4.359,6.674,9.797,14.482,13.17,15.63c0.14,0.048,0.29,0.086,0.44,0.124v2.825c-0.968,0.131-1.777,0.765-2.156,1.63  c-0.563,0.222-1.213,0.517-1.956,0.891c-2.93,1.473-3.142,1.999-3.142,2.69c0,0.015,0.001,0.029,0.001,0.044  c0,0.014-0.001,0.027-0.001,0.037c0,0.691,0.212,1.217,3.142,2.689c0.742,0.375,1.393,0.667,1.956,0.891  c0.427,0.974,1.398,1.658,2.529,1.658H59.54c1.028,0,1.925-0.567,2.399-1.402c0.7-0.224,1.589-0.603,2.668-1.146  c2.931-1.472,3.142-1.999,3.142-2.689c0-0.015,0-0.03-0.001-0.044C67.749,69.872,67.749,69.858,67.749,69.849z M62.298,70.862  c-0.477,0.213-0.913,0.39-1.225,0.486c-0.021-0.076-0.041-0.179-0.057-0.317c-0.003-0.022-0.004-0.043-0.006-0.065  c-0.031-0.313-0.036-0.643-0.036-1.037v-0.081c0-0.394,0.005-0.724,0.036-1.037c0.002-0.021,0.003-0.043,0.006-0.063  c0.016-0.139,0.037-0.242,0.057-0.318c0.312,0.096,0.748,0.272,1.225,0.486c0.649,0.29,1.375,0.646,1.978,0.973  C63.673,70.215,62.948,70.573,62.298,70.862z M35.498,69.182c0.464-0.221,0.911-0.419,1.288-0.569  c0.194-0.077,0.374-0.144,0.519-0.188c0.021,0.076,0.042,0.182,0.059,0.323c0.038,0.331,0.041,0.68,0.041,1.101v0.081  c0,0.421-0.003,0.769-0.041,1.101c-0.017,0.139-0.037,0.242-0.058,0.318c-0.146-0.045-0.326-0.112-0.52-0.188  c-0.379-0.149-0.827-0.347-1.288-0.565c-0.479-0.229-0.968-0.475-1.395-0.706C34.53,69.657,35.019,69.409,35.498,69.182z   M40.458,62.095h2.331c0.711,0,1.287-0.576,1.287-1.288c0-0.71-0.576-1.287-1.287-1.287h-2.331h-0.067  c-0.459,0-0.862-0.024-1.22-0.07c-0.341-0.045-0.64-0.11-0.897-0.198c-0.116-0.041-0.246-0.099-0.39-0.178  c-1.535-0.844-4.745-4.152-11.455-14.424c-0.443-0.68-0.713-1.091-0.858-1.292c-0.008-0.011-0.015-0.021-0.022-0.031  c-0.997-1.293-0.954-2.752,0.108-3.717c1.052-0.955,2.684-0.876,3.638,0.175l2.546,2.804l4.959,5.814  c0.255,0.298,0.616,0.452,0.98,0.452c0.296,0,0.593-0.101,0.835-0.308c0.541-0.461,0.605-1.273,0.144-1.815l-3.731-4.375V19.982  c0-1.419,1.155-2.574,2.575-2.574s2.574,1.155,2.574,2.574v27.106c0,2.84,2.311,5.15,5.15,5.15c1.539,0,2.918-0.683,3.863-1.756  c0.944,1.074,2.323,1.756,3.862,1.756c2.84,0,5.149-2.311,5.149-5.15V37.003V36.39V23.109c0-1.42,1.155-2.575,2.575-2.575  s2.575,1.155,2.575,2.575v28.574c-0.05,0.679-0.143,1.289-0.278,1.814c-0.211,0.542-0.457,1.074-0.733,1.58  c-0.107,0.148-0.194,0.302-0.261,0.458c-0.482,0.804-1.011,1.485-1.584,2.047c-0.407,0.398-0.837,0.735-1.288,1.011  c-0.411,0.252-0.841,0.452-1.287,0.6c-0.646,0.216-1.328,0.328-2.047,0.328h-1.127c-0.711,0-1.288,0.577-1.288,1.287  c0,0.712,0.577,1.288,1.288,1.288h1.127c0.706,0,1.389-0.08,2.047-0.229v2.745H40.458V62.095z M45.327,33.815  c1.199,0,2.208,0.825,2.492,1.938c0.053,0.204,0.083,0.416,0.083,0.637v10.699c0,1.42-1.154,2.575-2.575,2.575  c-1.42,0-2.575-1.155-2.575-2.575V36.39c0-0.214,0.029-0.42,0.078-0.617C43.108,34.649,44.121,33.815,45.327,33.815z M55.537,35.722  c0.057,0.213,0.091,0.437,0.091,0.667v10.699c0,1.42-1.155,2.575-2.575,2.575s-2.575-1.155-2.575-2.575V36.39  c0-0.225,0.031-0.44,0.086-0.648c0.289-1.107,1.294-1.927,2.489-1.927C54.241,33.815,55.241,34.625,55.537,35.722z M54.624,69.669  c-0.001-0.019-0.006-0.036-0.006-0.055c0-0.508,0.254-0.957,0.64-1.233c0.248-0.177,0.55-0.283,0.878-0.283s0.63,0.106,0.878,0.283  c0.386,0.276,0.64,0.725,0.64,1.233c0,0.02-0.005,0.037-0.006,0.055c-0.02,0.562-0.347,1.042-0.818,1.287  c-0.208,0.108-0.442,0.175-0.693,0.175s-0.485-0.067-0.693-0.175C54.97,70.711,54.643,70.231,54.624,69.669z M49.883,70.957  c-0.209,0.108-0.442,0.175-0.693,0.175c-0.252,0-0.485-0.067-0.694-0.175c-0.472-0.246-0.798-0.725-0.818-1.287  c-0.001-0.019-0.006-0.036-0.006-0.055c0-0.508,0.254-0.957,0.641-1.233c0.248-0.177,0.55-0.283,0.878-0.283  c0.327,0,0.629,0.106,0.878,0.283c0.385,0.276,0.639,0.725,0.639,1.233c0,0.02-0.005,0.037-0.005,0.055  C50.681,70.231,50.355,70.711,49.883,70.957z M42.938,70.957c-0.209,0.108-0.442,0.175-0.694,0.175  c-0.251,0-0.484-0.067-0.694-0.175c-0.471-0.246-0.798-0.725-0.818-1.287c0-0.019-0.005-0.036-0.005-0.055  c0-0.508,0.254-0.957,0.64-1.233c0.248-0.177,0.551-0.283,0.878-0.283c0.328,0,0.63,0.106,0.878,0.283  c0.386,0.276,0.64,0.725,0.64,1.233c0,0.02-0.005,0.037-0.005,0.055C43.736,70.231,43.41,70.711,42.938,70.957z"/></svg>