<svg xmlns="http://www.w3.org/2000/svg"  version="1.1" x="0px" y="0px" viewBox="0 0 100 100" enable-background="new 0 0 100 100" xml:space="preserve"><g><path fill="#ffffff" d="M55.375,55.728c-0.719,0-1.406,0.303-1.891,0.835c-0.948,1.043-0.872,2.661,0.17,3.61   c0.473,0.428,1.082,0.666,1.719,0.666c0.001,0,0.001,0,0.001,0c0.718,0,1.406-0.305,1.89-0.837c0.459-0.504,0.695-1.157,0.663-1.84   s-0.328-1.312-0.833-1.769C56.622,55.964,56.012,55.728,55.375,55.728z M56.049,58.896c-0.175,0.191-0.414,0.299-0.675,0.299   c-0.228,0-0.444-0.086-0.613-0.238c-0.372-0.34-0.398-0.917-0.061-1.287c0.175-0.193,0.414-0.299,0.675-0.299   c0.227,0,0.443,0.084,0.613,0.236c0.18,0.166,0.285,0.39,0.296,0.632C56.296,58.483,56.213,58.717,56.049,58.896z"/><path fill="#ffffff" d="M52.132,51.876c-0.473-0.43-1.082-0.665-1.72-0.665c-0.719,0-1.407,0.305-1.891,0.834   c-0.46,0.506-0.695,1.159-0.662,1.841c0.032,0.684,0.327,1.31,0.832,1.771c0.472,0.428,1.082,0.664,1.72,0.664   c0.001,0,0.001,0,0.001,0c0.717,0,1.406-0.304,1.89-0.835c0.459-0.505,0.694-1.158,0.663-1.839   C52.933,52.964,52.636,52.335,52.132,51.876z M51.086,54.379c-0.175,0.192-0.414,0.297-0.674,0.297   c-0.229,0-0.446-0.083-0.613-0.235c-0.181-0.165-0.286-0.389-0.298-0.631c-0.011-0.244,0.072-0.478,0.236-0.657   c0.175-0.191,0.415-0.298,0.675-0.298c0.227,0,0.444,0.085,0.613,0.237c0.18,0.164,0.285,0.387,0.297,0.631   C51.334,53.966,51.25,54.199,51.086,54.379z"/><path fill="#ffffff" d="M79.671,76.266L69.645,67.14c0.523-0.67,0.456-1.639-0.184-2.221l-0.006-0.005l3.438-3.778   c0.294-0.321,0.446-0.748,0.426-1.184s-0.214-0.846-0.536-1.138l-3.142-2.86c-0.397-0.362-0.925-0.487-1.416-0.393L28.021,18.97   c-0.465-0.424-1.132-0.544-1.718-0.309c-0.585,0.234-0.985,0.781-1.028,1.408l-1.796,25.422c-0.037,0.502,0.16,0.992,0.533,1.333   l28.535,25.967c-0.008,0.078-0.017,0.155-0.013,0.234c0.021,0.435,0.213,0.846,0.535,1.139l3.143,2.859   c0.314,0.286,0.712,0.428,1.106,0.428c0.446,0,0.891-0.182,1.216-0.538l3.437-3.776l0.005,0.005   c0.305,0.275,0.699,0.428,1.107,0.428c0.025,0,0.052-0.001,0.077-0.001c0.395-0.019,0.762-0.185,1.046-0.453l10.027,9.124   c0.314,0.288,0.711,0.429,1.105,0.429c0.446,0,0.892-0.182,1.216-0.538l3.227-3.544c0.293-0.322,0.447-0.748,0.427-1.184   C80.186,76.968,79.993,76.558,79.671,76.266z M68.373,72.465l1.014-1.114l4.49,4.086l-1.014,1.114L68.373,72.465z M66.427,70.692   l1.013-1.113l0.73,0.666l-1.012,1.113L66.427,70.692z M58.117,66.176c-0.014-0.013-0.019-0.031-0.032-0.043   c0,0-6.629-6.062-13.272-12.121c-3.323-3.031-6.649-6.061-9.152-8.333c-1.251-1.138-2.298-2.084-3.035-2.748   c-0.456-0.411-0.764-0.688-0.984-0.874c-0.313-1.593-1.919-10.657-3.269-18.32l37.395,34.032L58.117,66.176z M28.071,31.479   c0.494,2.789,0.99,5.579,1.367,7.674c0.188,1.048,0.348,1.922,0.461,2.535c0.028,0.151,0.053,0.284,0.076,0.406l-3.078,1.636   l0.954-13.489C27.924,30.652,27.997,31.065,28.071,31.479z M30.811,43.511c2.828,2.514,19.507,17.748,26.166,23.834   c0.015,0.014,0.033,0.019,0.049,0.03l-2.513,2.761L27.304,45.375L30.811,43.511z M68.199,59.981l0.5,0.455L57.443,72.804   l-0.5-0.455L68.199,59.981z M75.229,78.703l-1.149-1.047l1.014-1.113l1.149,1.047L75.229,78.703z"/></g></svg>